<mxfile host="Electron" agent="Mozilla/5.0 (X11; Linux x86_64) AppleWebKit/537.36 (KHTML, like Gecko) draw.io/24.7.8 Chrome/128.0.6613.36 Electron/32.0.1 Safari/537.36" version="24.7.8">
  <diagram name="Page-1" id="ekgK7g_mn-YcHqoveXig">
    <mxGraphModel dx="1231" dy="838" grid="1" gridSize="10" guides="1" tooltips="1" connect="1" arrows="1" fold="1" page="1" pageScale="1" pageWidth="827" pageHeight="1169" math="0" shadow="0">
      <root>
        <mxCell id="0" />
        <mxCell id="1" parent="0" />
        <mxCell id="VKUtFCcCT0yonZ3DR5Rf-20" value="" style="rounded=0;whiteSpace=wrap;html=1;" vertex="1" parent="1">
          <mxGeometry x="10" y="250" width="350" height="220" as="geometry" />
        </mxCell>
        <mxCell id="VKUtFCcCT0yonZ3DR5Rf-13" value="" style="rounded=0;whiteSpace=wrap;html=1;" vertex="1" parent="1">
          <mxGeometry x="470" y="110" width="280" height="360" as="geometry" />
        </mxCell>
        <mxCell id="VKUtFCcCT0yonZ3DR5Rf-15" style="edgeStyle=orthogonalEdgeStyle;rounded=0;orthogonalLoop=1;jettySize=auto;html=1;entryX=0;entryY=0.5;entryDx=0;entryDy=0;" edge="1" parent="1" source="VKUtFCcCT0yonZ3DR5Rf-1" target="VKUtFCcCT0yonZ3DR5Rf-2">
          <mxGeometry relative="1" as="geometry" />
        </mxCell>
        <mxCell id="VKUtFCcCT0yonZ3DR5Rf-1" value="&lt;font style=&quot;font-size: 14px;&quot;&gt;ffmpeg sending&lt;/font&gt;&lt;div style=&quot;font-size: 14px;&quot;&gt;&lt;font style=&quot;font-size: 14px;&quot;&gt;screen stream&lt;/font&gt;&lt;/div&gt;" style="rounded=0;whiteSpace=wrap;html=1;" vertex="1" parent="1">
          <mxGeometry x="40" y="330" width="120" height="60" as="geometry" />
        </mxCell>
        <mxCell id="VKUtFCcCT0yonZ3DR5Rf-18" style="edgeStyle=orthogonalEdgeStyle;rounded=0;orthogonalLoop=1;jettySize=auto;html=1;entryX=0;entryY=0.75;entryDx=0;entryDy=0;" edge="1" parent="1" source="VKUtFCcCT0yonZ3DR5Rf-2" target="VKUtFCcCT0yonZ3DR5Rf-3">
          <mxGeometry relative="1" as="geometry">
            <Array as="points">
              <mxPoint x="380" y="375" />
              <mxPoint x="380" y="375" />
            </Array>
          </mxGeometry>
        </mxCell>
        <mxCell id="VKUtFCcCT0yonZ3DR5Rf-2" value="&lt;font style=&quot;font-size: 14px;&quot;&gt;TCP server&lt;/font&gt;" style="rounded=0;whiteSpace=wrap;html=1;" vertex="1" parent="1">
          <mxGeometry x="210" y="330" width="120" height="60" as="geometry" />
        </mxCell>
        <mxCell id="VKUtFCcCT0yonZ3DR5Rf-10" style="edgeStyle=orthogonalEdgeStyle;rounded=0;orthogonalLoop=1;jettySize=auto;html=1;entryX=0.925;entryY=1.017;entryDx=0;entryDy=0;exitX=0.917;exitY=0.017;exitDx=0;exitDy=0;entryPerimeter=0;exitPerimeter=0;" edge="1" parent="1" source="VKUtFCcCT0yonZ3DR5Rf-3" target="VKUtFCcCT0yonZ3DR5Rf-4">
          <mxGeometry relative="1" as="geometry">
            <Array as="points">
              <mxPoint x="660" y="330" />
            </Array>
          </mxGeometry>
        </mxCell>
        <mxCell id="VKUtFCcCT0yonZ3DR5Rf-17" style="edgeStyle=orthogonalEdgeStyle;rounded=0;orthogonalLoop=1;jettySize=auto;html=1;entryX=1;entryY=0.25;entryDx=0;entryDy=0;" edge="1" parent="1" source="VKUtFCcCT0yonZ3DR5Rf-3" target="VKUtFCcCT0yonZ3DR5Rf-2">
          <mxGeometry relative="1" as="geometry">
            <Array as="points">
              <mxPoint x="470" y="345" />
              <mxPoint x="470" y="345" />
            </Array>
          </mxGeometry>
        </mxCell>
        <mxCell id="VKUtFCcCT0yonZ3DR5Rf-3" value="&lt;font style=&quot;font-size: 14px;&quot;&gt;TCP server&lt;/font&gt;" style="rounded=0;whiteSpace=wrap;html=1;" vertex="1" parent="1">
          <mxGeometry x="550" y="330" width="120" height="60" as="geometry" />
        </mxCell>
        <mxCell id="VKUtFCcCT0yonZ3DR5Rf-11" style="edgeStyle=orthogonalEdgeStyle;rounded=0;orthogonalLoop=1;jettySize=auto;html=1;entryX=0.25;entryY=0;entryDx=0;entryDy=0;" edge="1" parent="1" source="VKUtFCcCT0yonZ3DR5Rf-4" target="VKUtFCcCT0yonZ3DR5Rf-3">
          <mxGeometry relative="1" as="geometry">
            <mxPoint x="590" y="330" as="targetPoint" />
            <Array as="points">
              <mxPoint x="580" y="250" />
              <mxPoint x="580" y="250" />
            </Array>
          </mxGeometry>
        </mxCell>
        <mxCell id="VKUtFCcCT0yonZ3DR5Rf-4" value="&lt;font style=&quot;font-size: 14px;&quot;&gt;MobileVLCKit&lt;/font&gt;" style="rounded=0;whiteSpace=wrap;html=1;" vertex="1" parent="1">
          <mxGeometry x="550" y="160" width="120" height="60" as="geometry" />
        </mxCell>
        <mxCell id="VKUtFCcCT0yonZ3DR5Rf-12" style="edgeStyle=orthogonalEdgeStyle;rounded=0;orthogonalLoop=1;jettySize=auto;html=1;entryX=0.75;entryY=1;entryDx=0;entryDy=0;" edge="1" parent="1">
          <mxGeometry relative="1" as="geometry">
            <mxPoint x="560" y="330" as="sourcePoint" />
            <mxPoint x="560" y="220" as="targetPoint" />
            <Array as="points">
              <mxPoint x="560" y="280" />
              <mxPoint x="560" y="280" />
            </Array>
          </mxGeometry>
        </mxCell>
        <mxCell id="VKUtFCcCT0yonZ3DR5Rf-14" value="&lt;font style=&quot;font-size: 18px;&quot;&gt;Mobile App&lt;/font&gt;" style="text;html=1;align=center;verticalAlign=middle;resizable=0;points=[];autosize=1;strokeColor=none;fillColor=none;" vertex="1" parent="1">
          <mxGeometry x="555" y="70" width="110" height="40" as="geometry" />
        </mxCell>
        <mxCell id="VKUtFCcCT0yonZ3DR5Rf-16" value="UDP" style="text;html=1;align=center;verticalAlign=middle;resizable=0;points=[];autosize=1;strokeColor=none;fillColor=none;" vertex="1" parent="1">
          <mxGeometry x="160" y="330" width="50" height="30" as="geometry" />
        </mxCell>
        <mxCell id="VKUtFCcCT0yonZ3DR5Rf-19" value="&lt;font style=&quot;font-size: 14px;&quot;&gt;Connect&lt;/font&gt;" style="text;html=1;align=center;verticalAlign=middle;resizable=0;points=[];autosize=1;strokeColor=none;fillColor=none;" vertex="1" parent="1">
          <mxGeometry x="374" y="310" width="80" height="30" as="geometry" />
        </mxCell>
        <mxCell id="VKUtFCcCT0yonZ3DR5Rf-21" value="&lt;font style=&quot;font-size: 14px;&quot;&gt;Copying input&amp;nbsp;&lt;br&gt;to all clients&lt;/font&gt;" style="text;html=1;align=center;verticalAlign=middle;resizable=0;points=[];autosize=1;strokeColor=none;fillColor=none;" vertex="1" parent="1">
          <mxGeometry x="360" y="380" width="110" height="50" as="geometry" />
        </mxCell>
        <mxCell id="VKUtFCcCT0yonZ3DR5Rf-22" value="&lt;font style=&quot;font-size: 18px;&quot;&gt;Server&lt;/font&gt;" style="text;html=1;align=center;verticalAlign=middle;resizable=0;points=[];autosize=1;strokeColor=none;fillColor=none;" vertex="1" parent="1">
          <mxGeometry x="145" y="210" width="80" height="40" as="geometry" />
        </mxCell>
        <mxCell id="VKUtFCcCT0yonZ3DR5Rf-23" value="&lt;font style=&quot;font-size: 14px;&quot;&gt;Connect&lt;/font&gt;" style="text;html=1;align=center;verticalAlign=middle;resizable=0;points=[];autosize=1;strokeColor=none;fillColor=none;rotation=90;" vertex="1" parent="1">
          <mxGeometry x="555" y="260" width="80" height="30" as="geometry" />
        </mxCell>
        <mxCell id="VKUtFCcCT0yonZ3DR5Rf-24" value="&lt;font style=&quot;font-size: 14px;&quot;&gt;Copying (TCP)&lt;/font&gt;" style="text;html=1;align=center;verticalAlign=middle;resizable=0;points=[];autosize=1;strokeColor=none;fillColor=none;rotation=-90;" vertex="1" parent="1">
          <mxGeometry x="480" y="260" width="120" height="30" as="geometry" />
        </mxCell>
        <mxCell id="VKUtFCcCT0yonZ3DR5Rf-25" value="&lt;font style=&quot;font-size: 14px;&quot;&gt;Copying (UDP)&lt;/font&gt;" style="text;html=1;align=center;verticalAlign=middle;resizable=0;points=[];autosize=1;strokeColor=none;fillColor=none;rotation=-90;" vertex="1" parent="1">
          <mxGeometry x="620" y="260" width="120" height="30" as="geometry" />
        </mxCell>
      </root>
    </mxGraphModel>
  </diagram>
</mxfile>
